PathFileType	4	(X/Y/Z)	C:/Users/beibeiliu/ov580/test_trc/User3\sequence.17_training_dense_right.trc
DataRate	CameraRate	NumFrames	NumMarkers	Units	OrigDataRate	OrigDataStartFrame	OrigNumFrames
120	120	10	19	mm	120	62	247
Frame#	Time	ThumbCMC			ThumbMCP			ThumbIP			ThumbTip			IndexMCP			IndexPIP			IndexTip			MiddleMCP			MiddlePIP			MiddleTip			RingMCP			RingPIP			RingTip			PinkyMCP			PinkyPIP			PinkyTip			BackHand1			BackHand2			BackHand3	
		X0	Y0	Z0	X1	Y1	Z1	X2	Y2	Z2	X3	Y3	Z3	X4	Y4	Z4	X5	Y5	Z5	X6	Y6	Z6	X7	Y7	Z7	X8	Y8	Z8	X9	Y9	Z9	X10	Y10	Z10	X11	Y11	Z11	X12	Y12	Z12	X13	Y13	Z13	X14	Y14	Z14	X15	Y15	Z15	X16	Y16	Z16	X17	Y17	Z17	X18	Y18	Z18	
61	0.508333	166.87	-21.1651	2.61478	134.374	-14.1944	-4.64585	103.616	-20.4145	-11.9453	83.6154	-34.5539	-6.21444	133.568	-63.0558	-52.9369	116.214	-68.2291	-72.4122	103.214	-73.3778	-87.371	105.978	-64.777	-34.4113	88.1327	-43.4903	-23.8797	116.225	-33.1987	2.49369	102.584	-72.647	-18.2942	86.3163	-52.5729	-4.20574	112.764	-36.6987	14.5037	114.591	-93.2861	-3.73759	98.9334	-95.3681	-18.1852	82.9362	-102.498	-30.6689	159.738	-83.313	6.56877	177.682	-80.8057	26.5278	180.697	-60.5505	-2.02033	
62	0.516667	168.986	-25.9497	-0.770338	137.954	-17.7511	-9.87885	108.416	-21.7942	-18.8489	88.5931	-33.2874	-13.6609	140.505	-65.7445	-53.6277	125.526	-69.7249	-74.9956	106.633	-80.4478	-95.0683	111.459	-69.3862	-37.0971	92.9842	-41.3684	-27.3741	121.677	-38.997	-0.441191	106.594	-77.2406	-20.8156	88.5504	-54.8622	-13.6149	108.586	-40.2947	10.0806	112.975	-94.7509	-8.39817	98.9592	-99.1902	-16.4866	82.5861	-102.831	-35.1578	154.504	-92.1226	4.393	176.531	-86.7627	28.0117	183.63	-63.5402	-4.57782	
63	0.525	172.35	-31.4221	-3.58124	142.206	-23.8425	-15.5645	112.962	-22.5041	-26.5717	93.0667	-37.9728	-22.8881	142.296	-76.4475	-59.7557	128.832	-82.3009	-79.2347	117.016	-90.0651	-94.452	117.397	-72.6755	-44.6268	97.5607	-46.8709	-33.2877	123.131	-38.0269	-8.81499	108.998	-82.2473	-26.2736	90.5005	-59.7227	-17.4727	113.519	-42.7943	1.88074	116.355	-97.8315	-10.5039	99.5163	-103.872	-23.2165	85.3428	-111.597	-40.7261	159.403	-93.3389	6.32591	176.13	-88.4533	26.1855	181.389	-71.6675	-1.68681	
64	0.533333	175.285	-35.2682	-4.52252	143.961	-28.2158	-21.8875	114.741	-32.6284	-34.5557	92.5216	-46.1445	-31.2963	148.472	-86.6633	-59.2394	138.035	-92.9072	-79.3988	129.429	-99.8729	-100.469	123.614	-82.0052	-46.0934	100.985	-59.0372	-43.0949	124.544	-45.0966	-14.5758	110.353	-89.3503	-29.3195	94.6511	-65.7589	-25.7889	113.299	-50.7229	-1.42377	117.849	-106.353	-9.48297	105.139	-110.617	-25.1802	91.9927	-115.239	-43.3906	159.452	-98.3935	8.50667	176.388	-90.2653	31.418	187.77	-75.1579	-4.64178	
65	0.541667	176.021	-41.2792	-6.37088	147.803	-33.2726	-24.7045	119.391	-43.8271	-38.4943	98.1889	-54.5783	-37.0716	158.514	-93.6987	-56.9422	149.003	-103.921	-81.5195	139.044	-113.444	-97.62	129.04	-92.1749	-49.7279	107.802	-69.5478	-52.603	125.826	-53.2747	-18.056	117.932	-98.1208	-30.699	99.8107	-73.0962	-32.5904	114.896	-57.1837	-8.55932	123.837	-112.617	-12.1578	111.073	-119.619	-27.8993	99.449	-128.133	-44.9087	163.476	-104.259	4.47432	177.959	-91.566	31.4563	188.77	-79.5329	-0.586141	
66	0.55	177.09	-46.5288	-5.52417	149.204	-42.8536	-28.0303	123.328	-52.5103	-42.0237	102.292	-65.2903	-39.5888	165.354	-102.694	-56.2944	158.184	-113.267	-77.0362	150.852	-124.522	-96.8432	135.654	-103.125	-47.7614	112.976	-78.8244	-54.2676	129.101	-58.8241	-25.751	122.946	-105.349	-34.4593	104.98	-83.7544	-35.4913	119.861	-63.8267	-10.7402	131.001	-118.749	-13.7328	117.104	-128.629	-28.6856	110.028	-135.153	-45.5079	166.969	-106.55	8.01908	176.499	-98.7759	35.4005	193.474	-82.9584	3.63046	
67	0.558333	178.906	-51.5345	-3.03598	149.113	-52.2418	-29.8367	124.578	-58.1127	-45.8134	105.502	-76.3143	-38.9414	171.203	-109.78	-50.9169	166.05	-121.779	-72.6579	160.084	-135.596	-96.7502	143.398	-111.917	-47.9285	117.344	-93.2259	-55.614	127.968	-67.714	-26.5895	128.312	-116.128	-29.3743	108.009	-92.4296	-34.5116	121.845	-71.2598	-14.2172	135.86	-123.5	-9.08339	125.072	-136.34	-24.2392	112.907	-148.847	-43.3545	169.512	-111.446	13.2052	178.91	-96.9288	38.2978	193.811	-84.8248	5.23977	
68	0.566667	179.379	-53.5856	-3.56158	152.324	-52.5525	-28.8306	125.664	-70.7663	-43.1438	107.716	-86.1055	-38.9174	177.657	-117.339	-52.0939	171.157	-129.513	-69.8806	167.386	-143.453	-88.6046	148.857	-118.743	-45.0545	120.233	-102.835	-52.7348	129.608	-74.3695	-22.5954	137.212	-120.04	-27.605	112.99	-103.28	-34.2323	123.234	-78.048	-12.0776	139.894	-127.764	-2.9012	128.118	-144.563	-19.6961	123.859	-154.08	-37.7692	172.434	-114.032	14.4972	182.213	-98.7426	44.9546	196.011	-89.5743	8.83253	
69	0.575	179.039	-53.8045	-4.58335	151.147	-59.2917	-31.3435	126.948	-73.2254	-44.4362	107.602	-93.9454	-39.12	182.337	-119.212	-51.1851	177.844	-132.972	-70.3593	173.918	-147.004	-88.691	151.631	-124.494	-41.6833	123.576	-103.809	-54.4292	129.076	-79.6424	-25.837	139.528	-125.759	-25.3095	113.062	-108.717	-31.0643	126.176	-80.5689	-12.6016	144.141	-136.533	-3.46866	134.83	-147.88	-18.3995	124.193	-164.415	-33.8316	177.563	-115.718	16.0633	183.089	-97.719	44.7627	198.816	-89.3472	9.04592	
70	0.583333	178.313	-52.5675	-4.42734	149.497	-60.9977	-29.414	125.975	-75.7247	-45.6571	110.007	-93.9941	-38.0006	183.33	-119.684	-48.3329	181.168	-132.85	-70.6386	179.522	-147.67	-89.6438	152.933	-125.862	-41.651	125.602	-111.802	-51.3722	128.955	-82.7843	-22.0058	142.937	-128.916	-25.2503	117.791	-115.459	-30.6915	124.235	-86.8935	-12.4921	146.997	-137.222	1.48069	139.097	-152.383	-13.3676	131.734	-164.693	-28.8508	180.992	-116.276	18.1927	185.596	-95.3319	44.7952	198.992	-86.337	9.94908	
